<svg xmlns="http://www.w3.org/2000/svg" viewBox="375.54 126.12 528 528" fill="none">
<defs><filter id="dwx-keyline" x="-25%" y="-25%" width="130%" height="130%"><feMorphology in="SourceAlpha" operator="dilate" radius="12" result="d"/><feFlood flood-color="#cdeef7"/><feComposite in2="d" operator="in" result="r"/><feMerge><feMergeNode in="r"/><feMergeNode in="SourceGraphic"/></feMerge></filter></defs>
<g filter="url(#dwx-keyline)">
<g transform="matrix(2.3710211859863635 0 0 2.3710211859863635 639.5400364246542 390.1181467850949)" id="logo-logo"  >
<g style=""  paint-order="stroke"   >
		<g transform="matrix(0.32088933508123774 0 0 -0.32088933508123785 -43.66517156588117 62.15284512937038)"  >
<path style="stroke: none; stroke-width: 1; stroke-dasharray: none; stroke-linecap: butt; stroke-dashoffset: 0; stroke-linejoin: miter; stroke-miterlimit: 4; fill: rgb(230,230,230); fill-rule: evenodd; opacity: 1;"  paint-order="stroke"  transform=" translate(-193.92200000000003, -126.30869999999996)" d="M 210.344 180.777 C 220.156 137.676 236.402 86.59379999999999 264.68 51.90629999999999 L 277.35200000000003 36.35939999999999 L 110.49200000000002 36.35939999999999 L 124.91800000000002 52.28519999999999 C 156.668 87.32809999999999 178.574 136.379 191.92200000000003 181.36699999999996 L 202.26600000000002 216.25799999999995 L 210.34400000000002 180.77699999999996" stroke-linecap="round" />
</g>
		<g transform="matrix(0.32088933508123774 0 0 -0.32088933508123785 9.392435987793647 11.038302228064282)"  >
<path style="stroke: none; stroke-width: 1; stroke-dasharray: none; stroke-linecap: butt; stroke-dashoffset: 0; stroke-linejoin: miter; stroke-miterlimit: 4; fill: rgb(230,230,230); fill-rule: evenodd; opacity: 1;"  paint-order="stroke"  transform=" translate(-359.26750000000004, -285.5989515391039)" d="M 215.887 324.004 C 243.684 340.55100000000004 202.168 378.348 189.051 391.17600000000004 C 178.398 401.59000000000003 173.137 409.523 166.15599999999998 422.28900000000004 C 163.82399999999998 426.547 161.49999999999997 430.27000000000004 158.32399999999998 433.96100000000007 L 155.30499999999998 437.46900000000005 L 156.188 442.00000000000006 C 184.91 588.996 428.91 560.465 420.801 363.289 C 417.699 287.902 407.699 231.723 472 177.367 C 492.035 160.434 517.855 146.57799999999997 544.273 143.875 L 563.23 141.938 L 550.3050000000001 127.93799999999999 C 547.711 125.13299999999998 545.066 122.37899999999999 542.363 119.67999999999999 C 489.094 66.4102 417.457 36.3594 342.047 36.3594 L 314.773 36.3594 L 312.99600000000004 37.117200000000004 C 238.887 68.5039 212.477 244.043 211.238 315.652 L 211.145 321.176 L 215.887 324.00399999999996" stroke-linecap="round" />
</g>
		<g transform="matrix(0.32088933508123774 0 0 -0.32088933508123785 64.7171266938173 15.693388609545423)"  >
<path style="stroke: none; stroke-width: 1; stroke-dasharray: none; stroke-linecap: butt; stroke-dashoffset: 0; stroke-linejoin: miter; stroke-miterlimit: 4; fill: rgb(230,230,230); fill-rule: evenodd; opacity: 1;"  paint-order="stroke"  transform=" translate(-531.6779999999999, -271.0921235689482)" d="M 510.637 258.66 C 529.969 263.46500000000003 548.301 273.648 563.52 286.391 C 582.148 301.992 597.0269999999999 321.988 606.641 344.305 L 622.0039999999999 379.93 L 624.8909999999998 341.242 C 625.4219999999998 334.17600000000004 625.6839999999999 327.086 625.6839999999999 319.99600000000004 C 625.6839999999999 269.336 612.1559999999998 219.95700000000005 586.3549999999999 176.35200000000003 L 585.68 175.21500000000003 L 584.723 174.30100000000004 C 578.9879999999999 168.84800000000004 572.0699999999999 165.19500000000005 564.3629999999999 163.47700000000003 C 554.137 161.19900000000004 543.27 162.32800000000003 533.2379999999999 165.02000000000004 C 515.3589999999999 169.80500000000004 498.3399999999999 179.98400000000004 484.28499999999997 191.87100000000004 C 465.22299999999996 207.99200000000005 451.36299999999994 226.94500000000005 444.008 250.93400000000003 L 437.67199999999997 271.637 L 457.215 262.332 C 457.637 262.129 458.05899999999997 261.93399999999997 458.484 261.734 C 474.82 254.313 493.469 254.402 510.637 258.65999999999997" stroke-linecap="round" />
</g>
		<g transform="matrix(0.32088933508123774 0 0 -0.32088933508123785 4.3605257208069474 -38.2489261099893)"  >
<path style="stroke: none; stroke-width: 1; stroke-dasharray: none; stroke-linecap: butt; stroke-dashoffset: 0; stroke-linejoin: miter; stroke-miterlimit: 4; fill: rgb(14,138,169); fill-rule: evenodd; opacity: 1;"  paint-order="stroke"  transform=" translate(-343.586361000124, -439.1946711524586)" d="M 87.0039 406.008 L 87.0039 603.637 L 342.047 603.637 C 417.457 603.637 489.09400000000005 573.5899999999999 542.363 520.3159999999999 C 563.23 499.4489999999999 580.816 475.4299999999999 594.344 449.2029999999999 L 594.84 448.2339999999999 L 595.109 447.18799999999993 C 608.8670000000001 393.2029999999999 594.664 337.29299999999995 551.3280000000001 300.9839999999999 C 538.3050000000001 290.0779999999999 522.695 281.2229999999999 506.1290000000001 277.1169999999999 C 493.1210000000001 273.8909999999999 478.6840000000001 273.4449999999999 466.2460000000001 279.0939999999999 C 444.5000000000001 288.9689999999999 438.5310000000001 313.9449999999999 438.5160000000001 336.2809999999999 L 438.4800000000001 336.8129999999999 L 438.51200000000006 337.3439999999999 C 438.58200000000005 338.7659999999999 438.66800000000006 340.1879999999999 438.73400000000004 341.60899999999987 L 439.75000000000006 362.6559999999999 C 442.37500000000006 417.2929999999999 426.2970000000001 470.7299999999999 385.90600000000006 508.95299999999986 C 371.50000000000006 522.5899999999999 354.7150000000001 533.5199999999999 336.3910000000001 541.1209999999999 C 318.6640000000001 548.4689999999998 299.65600000000006 552.6839999999999 280.4840000000001 553.4729999999998 C 238.7110000000001 555.2029999999999 197.4490000000001 540.2229999999998 168.5000000000001 509.62899999999985 C 159.57800000000012 500.21099999999984 152.56600000000012 489.40999999999985 147.34000000000012 477.54699999999985 C 142.3320000000001 466.19899999999984 139.02000000000012 454.14099999999985 136.91400000000013 441.9379999999999 L 136.21100000000013 437.8199999999999 L 87.00390000000013 406.00799999999987" stroke-linecap="round" />
</g>
		<g transform="matrix(0.32088933508123774 0 0 -0.32088933508123785 -61.055303791073015 45.44723403377398)"  >
<path style="stroke: none; stroke-width: 1; stroke-dasharray: none; stroke-linecap: butt; stroke-dashoffset: 0; stroke-linejoin: miter; stroke-miterlimit: 4; fill: rgb(14,138,169); fill-rule: evenodd; opacity: 1;"  paint-order="stroke"  transform=" translate(-139.72845, -178.36904999999996)" d="M 158.469 143.809 C 145.563 112.891 127.457 80.3359 103.145 56.9141 L 87.0039 41.3711 L 87.0039 307.984 L 96.5547 307.96099999999996 C 124.207 307.90599999999995 153.875 308.609 181.168 313.39099999999996 L 192.453 315.36699999999996 L 192.34 303.902 C 191.785 250.969 178.906 192.762 158.469 143.809" stroke-linecap="round" />
</g>
		<g transform="matrix(0.32088933508123774 0 0 -0.32088933508123785 -61.07336986063808 48.626669743625854)"  >
<path style="stroke: none; stroke-width: 1; stroke-dasharray: none; stroke-linecap: butt; stroke-dashoffset: 0; stroke-linejoin: miter; stroke-miterlimit: 4; fill: rgb(146,220,237); fill-rule: evenodd; opacity: 1;"  paint-order="stroke"  transform=" translate(-139.67215000000002, -168.46085)" d="M 149.68 132.051 C 170.62900000000002 182.23 182.305 240.10199999999998 182.81300000000002 288.57399999999996 C 154.56600000000003 283.633 120.59400000000002 282.953 96.53130000000002 283.00399999999996 L 96.53130000000002 48.3477 C 117.727 68.7656 135.676 98.5195 149.68 132.051" stroke-linecap="round" />
</g>
		<g transform="matrix(0.32088933508123774 0 0 -0.32088933508123785 4.376768148477254 -33.29751823797906)"  >
<path style="stroke: none; stroke-width: 1; stroke-dasharray: none; stroke-linecap: butt; stroke-dashoffset: 0; stroke-linejoin: miter; stroke-miterlimit: 4; fill: rgb(146,220,237); fill-rule: evenodd; opacity: 1;"  paint-order="stroke"  transform=" translate(-343.636977913479, -423.76440491828555)" d="M 96.5313 408.082 L 127.531 428.129 C 129.988 442.41 133.77 454.96500000000003 138.621 465.96500000000003 C 144.64100000000002 479.61300000000006 152.44500000000002 491.105 161.578 500.75 C 193.098 534.063 236.914 549.387 280.879 547.566 C 300.98400000000004 546.7420000000001 321.10900000000004 542.34 340.039 534.4920000000001 C 358.906 526.6640000000001 376.77299999999997 515.2890000000001 392.457 500.44500000000005 C 428.332 466.48800000000006 452.086 414.86300000000006 449.26599999999996 346.77000000000004 L 448.24999999999994 325.72700000000003 C 448.17599999999993 324.28900000000004 448.09799999999996 322.855 448.02699999999993 321.43 C 448.0469999999999 321.059 448.0589999999999 320.688 448.0589999999999 320.309 C 448.0589999999999 293.586 457.0899999999999 278.28900000000004 470.18799999999993 272.34000000000003 C 479.4919999999999 268.11300000000006 491.30099999999993 267.824 503.8399999999999 270.934 C 517.6679999999999 274.363 532.098 281.879 545.2069999999999 292.85900000000004 C 577.9449999999999 320.285 601.3049999999998 368.87100000000004 585.8789999999999 429.40600000000006 C 572.742 454.87100000000004 555.7269999999999 478.05500000000006 535.6329999999999 498.15600000000006 C 485.9409999999999 547.836 417.4099999999999 578.6800000000001 342.0469999999999 578.6800000000001 L 96.5313 578.6800000000001 L 96.5313 408.082" stroke-linecap="round" />
</g>
		<g transform="matrix(0.32088933508123774 0 0 -0.32088933508123785 65.66711957032538 25.4359157622348)"  >
<path style="stroke: none; stroke-width: 1; stroke-dasharray: none; stroke-linecap: butt; stroke-dashoffset: 0; stroke-linejoin: miter; stroke-miterlimit: 4; fill: rgb(255,255,255); fill-rule: evenodd; opacity: 1;"  paint-order="stroke"  transform=" translate(-534.6385, -240.7311047141992)" d="M 512.93 233.984 C 492.2699999999999 228.863 471.84799999999996 229.77700000000002 454.54699999999997 237.637 C 454.066 237.855 453.594 238.074 453.121 238.301 C 459.078 218.85199999999998 470.25399999999996 200.777 490.43399999999997 183.719 C 504.64099999999996 171.707 520.492 162.863 535.703 158.789 C 545.281 156.22299999999998 554.391 155.594 562.297 157.35199999999998 C 568.1410000000001 158.64799999999997 573.543 161.38699999999997 578.1560000000001 165.777 C 602.2850000000001 206.55499999999998 616.1560000000001 254.027 616.1560000000001 304.57 C 616.1560000000001 311.48 615.898 318.328 615.3910000000001 325.105 C 604.6210000000001 300.117 588.2930000000001 279.281 569.633 263.66 C 552.094 248.96900000000002 532.297 238.79700000000003 512.9300000000001 233.98400000000004" stroke-linecap="round" />
</g>
		<g transform="matrix(0.32088933508123774 0 0 -0.32088933508123785 7.83820849332767 15.98128306760782)"  >
<path style="stroke: none; stroke-width: 1; stroke-dasharray: none; stroke-linecap: butt; stroke-dashoffset: 0; stroke-linejoin: miter; stroke-miterlimit: 4; fill: rgb(255,255,255); fill-rule: evenodd; opacity: 1;"  paint-order="stroke"  transform=" translate(-354.424, -270.1949467961848)" d="M 465.852 154.664 C 397.176 212.71499999999997 408.26199999999994 274.836 411.28099999999995 348.258 C 418.93799999999993 534.352 191.90999999999994 559.711 165.54299999999995 424.75 C 177.33199999999994 411.051 175.74999999999994 402.074 195.70699999999994 382.563 C 217.63299999999992 361.121 256.1479999999999 321.457 220.76599999999993 300.387 C 221.40599999999992 263.277 239.65599999999995 63.0977 316.7109999999999 30.46089999999998 L 342.0469999999999 30.46089999999998 C 417.4099999999999 30.46089999999998 485.9409999999999 61.30469999999998 535.6329999999999 110.98799999999999 C 538.242 113.60199999999999 540.7969999999999 116.25799999999998 543.305 118.97299999999998 C 517.4649999999999 121.61299999999999 489.84799999999996 134.38299999999998 465.852 154.664" stroke-linecap="round" />
</g>
		<g transform="matrix(0.32088933508123774 0 0 -0.32088933508123785 -43.43573569129808 71.60664605253248)"  >
<path style="stroke: none; stroke-width: 1; stroke-dasharray: none; stroke-linecap: butt; stroke-dashoffset: 0; stroke-linejoin: miter; stroke-miterlimit: 4; fill: rgb(255,255,255); fill-rule: evenodd; opacity: 1;"  paint-order="stroke"  transform=" translate(-194.637, -96.84745)" d="M 257.297 30.4609 C 227.789 66.6602 211 119.539 201.051 163.234 C 187.051 116.012 164.152 65.9727 131.977 30.4609 L 257.297 30.4609" stroke-linecap="round" />
</g>
		<g transform="matrix(0.32088933508123774 0 0 -0.32088933508123785 -67.31286072623436 -17.636518853346274)"  >
<path style="stroke: none; stroke-width: 1; stroke-dasharray: none; stroke-linecap: butt; stroke-dashoffset: 0; stroke-linejoin: miter; stroke-miterlimit: 4; fill: rgb(224,151,37); fill-rule: evenodd; opacity: 1;"  paint-order="stroke"  transform=" translate(-120.22778029535814, -374.95941929709625)" d="M 72.6992 317.617 C 16.257800000000003 317.617 5.320310000000006 345.42600000000004 63.1602 379.254 C 88.17190000000001 393.875 118.539 417.379 145.051 432.32800000000003 C 156.273 427.67600000000004 160.94099999999997 405.48800000000006 177.57799999999997 389.125 C 197.62499999999997 369.41 214.70699999999997 354.203 215.71499999999997 336.688 C 216.902 316.074 89.47659999999998 317.61699999999996 72.69919999999996 317.61699999999996" stroke-linecap="round" />
</g>
		<g transform="matrix(0.32088933508123774 0 0 -0.32088933508123785 -62.63082229292155 -12.72725881263952)"  >
<path style="stroke: none; stroke-width: 1; stroke-dasharray: none; stroke-linecap: butt; stroke-dashoffset: 0; stroke-linejoin: miter; stroke-miterlimit: 4; fill: rgb(255,192,97); fill-rule: evenodd; opacity: 1;"  paint-order="stroke"  transform=" translate(-134.8186, -359.66049999999996)" d="M 87.5977 350.949 Z M 59.8672 328.781 C 65.2852 326.23 74.6211 324.789 87.5625 324.789 L 87.5625 324.711 L 92.3281 324.789 L 160.02 326.227 C 175.57000000000002 327.121 191.121 324.49199999999996 201.01600000000002 323.17999999999995 C 203.211 326.13699999999994 206.234 328.43399999999997 209.77 329.72299999999996 C 200.27300000000002 348.53499999999997 179.191 355.22999999999996 156.336 396.14099999999996 L 87.5977 350.949 C 72.7734 342.277 63.7461 334.781 59.8672 328.781" stroke-linecap="round" />
</g>
		<g transform="matrix(0.32088933508123774 0 0 -0.32088933508123785 -27.301740812748562 -40.3744421445688)"  >
<path style="stroke: none; stroke-width: 1; stroke-dasharray: none; stroke-linecap: butt; stroke-dashoffset: 0; stroke-linejoin: miter; stroke-miterlimit: 4; fill: rgb(0,0,0); fill-rule: evenodd; opacity: 1;"  paint-order="stroke"  transform=" translate(-244.916, -445.8185)" d="M 244.914 464.887 C 255.445 464.887 263.984 456.348 263.984 445.82 C 263.984 435.289 255.445 426.75 244.914 426.75 C 234.38299999999998 426.75 225.84799999999998 435.289 225.84799999999998 445.82 C 225.84799999999998 456.348 234.38299999999998 464.887 244.914 464.887" stroke-linecap="round" />
</g>
		<g transform="matrix(0.32088933508123774 0 0 -0.32088933508123785 0 -2.842171e-14)"  >
<path style="stroke: none; stroke-width: 1; stroke-dasharray: none; stroke-linecap: butt; stroke-dashoffset: 0; stroke-linejoin: miter; stroke-miterlimit: 4; fill: rgb(0,0,0); fill-rule: nonzero; opacity: 1;"  paint-order="stroke"  transform=" translate(-329.9974839509599, -319.998045)" d="M 616.156 319.996 C 616.156 326.902 615.895 333.75399999999996 615.387 340.53499999999997 C 604.6129999999999 315.54299999999995 588.2929999999999 294.71099999999996 569.6329999999999 279.08599999999996 C 552.0939999999999 264.39799999999997 532.2969999999999 254.22299999999996 512.93 249.41399999999996 C 492.2699999999999 244.28899999999996 471.84799999999996 245.20299999999995 454.54699999999997 253.06299999999996 L 453.121 253.72699999999995 C 459.078 234.28499999999994 470.25399999999996 216.20699999999994 490.43399999999997 199.14499999999995 C 504.64099999999996 187.13299999999995 520.492 178.28899999999996 535.703 174.21899999999997 C 545.281 171.65199999999996 554.391 171.01999999999995 562.297 172.77699999999996 C 568.1370000000001 174.07799999999995 573.5310000000001 176.80899999999997 578.145 181.19499999999996 C 602.2769999999999 221.97699999999998 616.156 269.44499999999994 616.156 319.996 z M 585.867 444.85499999999996 C 572.73 470.316 555.7189999999999 493.484 535.6329999999999 513.582 C 485.9409999999999 563.266 417.4099999999999 594.109 342.0469999999999 594.109 L 96.5313 594.109 L 96.5313 423.914 C 106.809 430.90999999999997 117.215 437.863 127.63300000000001 444.137 C 130.098 458.176 133.83200000000002 470.535 138.621 481.391 C 144.64100000000002 495.03900000000004 152.44500000000002 506.531 161.578 516.176 C 193.098 549.488 236.914 564.8130000000001 280.879 562.9960000000001 C 300.98400000000004 562.1680000000001 321.10900000000004 557.7700000000001 340.039 549.9220000000001 C 358.906 542.0940000000002 376.77299999999997 530.7150000000001 392.457 515.8750000000001 C 428.332 481.9140000000001 452.086 430.2890000000001 449.26599999999996 362.1990000000001 C 448.926 353.9730000000001 448.58199999999994 347.5310000000001 448.24999999999994 341.1520000000001 L 448.02699999999993 336.8480000000001 L 448.0589999999999 335.73400000000015 C 448.0589999999999 309.01200000000017 457.0899999999999 293.71500000000015 470.18799999999993 287.77000000000015 C 479.4919999999999 283.53900000000016 491.30099999999993 283.25400000000013 503.8399999999999 286.36300000000017 C 517.6679999999999 289.7930000000002 532.098 297.3090000000002 545.2069999999999 308.28900000000016 C 577.9489999999998 335.7110000000002 601.3049999999998 384.31600000000014 585.8669999999998 444.85500000000013 z M 58.3945 398.609 L 58.3945 613.18 C 58.3945 623.7109999999999 66.9336 632.25 77.4648 632.25 L 342.047 632.25 C 427.934 632.25 506.004 597.121 562.59 540.543 C 619.172 483.953 654.297 405.887 654.297 319.996 C 654.297 275.902 645.0350000000001 233.85899999999998 628.359 195.72699999999998 C 624.1600000000001 180.83999999999997 617.8240000000001 168.85899999999998 609.926 159.50399999999996 L 608.8710000000001 158.28499999999997 C 595.809 136.859 580.246 117.113 562.59 99.457 C 506.004 42.875 427.934 7.74609 342.047 7.74609 L 77.4648 7.74609 C 66.9336 7.74609 58.394499999999994 16.2891 58.394499999999994 26.816399999999998 L 58.394499999999994 299.164 C 43.718799999999995 300.5 31.953099999999992 303.945 23.57419999999999 309.07 C 14.75779999999999 314.465 9.062499999999991 321.738 6.765629999999991 330.613 C 4.5039099999999905 339.367 5.808589999999991 348.555 10.937499999999991 357.836 C 17.50389999999999 369.711 31.44919999999999 382.711 53.55859999999999 395.641 L 53.58979999999999 395.656 L 53.55859999999999 395.719 C 55.14839999999999 396.652 56.76559999999999 397.609 58.394499999999994 398.609 z M 75.5977 336.59799999999996 C 76.2148 336.65999999999997 76.83200000000001 336.68799999999993 77.4648 336.68799999999993 C 78.1328 336.68799999999993 78.78909999999999 336.65199999999993 79.4414 336.58599999999996 C 92.4844 336.55899999999997 118.809 336.609 145.152 338.121 C 183.879 340.352 216.055 324.941 169.19099999999997 370.72299999999996 L 169.11699999999996 370.79699999999997 L 164.24599999999995 375.566 C 154.37099999999995 385.277 148.42599999999996 395.74199999999996 143.29699999999994 404.77299999999997 L 141.46899999999994 408.039 C 131.90999999999994 401.996 121.69499999999994 395.02299999999997 111.62899999999993 388.152 C 98.02729999999994 378.86699999999996 84.64059999999994 369.727 72.76559999999994 362.793 L 72.73439999999994 362.848 C 57.9063 354.176 48.8828 346.676 45.0039 340.68 C 50.418 338.129 59.7578 336.688 72.6992 336.688 L 72.6992 336.609 z M 96.5313 298.641 L 96.5313 63.7813 C 117.727 84.1953 135.676 113.945 149.68 147.48000000000002 C 170.613 197.62500000000003 182.281 255.44500000000002 182.81300000000002 303.895 C 171.633 302.031 159.48800000000003 300.844 147.234 300.14099999999996 C 129.26600000000002 299.102 110.80900000000001 298.75399999999996 96.53130000000002 298.64099999999996 z M 131.934 45.8867 L 257.30899999999997 45.8867 C 242.84799999999996 63.613299999999995 231.19899999999996 85.6211 221.81999999999996 109.496 C 213.14799999999997 131.555 206.36299999999997 155.344 201.05099999999996 178.66 C 196.41399999999996 163.016 190.99199999999996 147.63299999999998 184.83599999999996 132.887 C 170.965 99.6484 153.207 69.3438 131.934 45.8867 Z M 316.73 45.8867 L 342.047 45.8867 C 417.41 45.8867 485.94100000000003 76.7305 535.633 126.418 C 538.188 128.973 540.6840000000001 131.574 543.1410000000001 134.23000000000002 C 537.4140000000001 134.805 531.6410000000001 135.883 525.8710000000001 137.43 C 505.2580000000001 142.949 484.2580000000001 154.535 465.8520000000001 170.094 C 403.94900000000007 222.422 406.7890000000001 276.711 410.2660000000001 343.09000000000003 C 410.63700000000006 350.30100000000004 411.0350000000001 357.75800000000004 411.28100000000006 363.684 C 413.59800000000007 419.668 394.8160000000001 461.41400000000004 366.38700000000006 488.32000000000005 C 354.32800000000003 499.7300000000001 340.36300000000006 508.57400000000007 325.44100000000003 514.7620000000001 C 310.59000000000003 520.922 294.918 524.3710000000001 279.391 525.0120000000001 C 245.85200000000003 526.3950000000001 212.66400000000002 514.9770000000001 189.13300000000004 490.1050000000001 C 183.08600000000004 483.71900000000005 177.77000000000004 475.7850000000001 173.47300000000004 466.04300000000006 C 170.12500000000003 458.44500000000005 167.43400000000005 449.85900000000004 165.54300000000003 440.17600000000004 C 169.58600000000004 435.48 172.81600000000003 429.79300000000006 176.36700000000005 423.54300000000006 C 180.27700000000004 416.6600000000001 184.81600000000006 408.68000000000006 190.91400000000004 402.6840000000001 L 195.70700000000005 397.98800000000006 C 216.50800000000004 377.6720000000001 233.35900000000004 361.21900000000005 234.70700000000005 337.72700000000003 C 235.24200000000005 328.406 229.91000000000005 321.25800000000004 220.76600000000005 315.81600000000003 L 220.84400000000005 311.242 C 222.22300000000004 286.309 229.28100000000006 194.574 257.27000000000004 123.34800000000001 C 271.45700000000005 87.22660000000002 290.754 56.918000000000006 316.73 45.88670000000002 z M 43.5547 340.152 C 43.675799999999995 339.695 43.625 339.949 43.5391 340.352 C 43.5 340.40999999999997 43.5 340.371 43.5547 340.152" stroke-linecap="round" />
</g>
</g>
</g>
</g>
</svg>
